<svg aria-hidden="true" style="position: absolute; width: 0; height: 0; overflow: hidden;" version="1.1" xmlns="http://www.w3.org/2000/svg" xmlns:xlink="http://www.w3.org/1999/xlink">
<defs>
<symbol id="logo" viewBox="0 0 20 20">
<path d="M5.33 12.77c-0.41 0.155-0.884 0.245-1.38 0.245-2.209 0-4-1.791-4-4 0-1.872 1.286-3.443 3.022-3.88l0.028-0.006v-0.13c0-0.001 0-0.003 0-0.004 0-2.209 1.791-4 4-4 0.621 0 1.209 0.142 1.734 0.394l-0.024-0.010c0.646-0.846 1.655-1.386 2.79-1.386 1.773 0 3.238 1.318 3.468 3.028l0.002 0.018c1.038 0.205 1.836 1.030 1.998 2.066l0.002 0.014c1.748 0.454 3.017 2.017 3.017 3.877 0 2.209-1.791 4-4 4-0.624 0-1.215-0.143-1.741-0.398l0.024 0.010c-0.541 0.869-1.317 1.548-2.238 1.957l-0.032 0.013v3.42l2 1v1h-8v-1l2-1v-3l-2.67-2.23zM5 10l3 3v-3h-3z"></path>
</symbol>
<symbol id="award" viewBox="0 0 32 32">
<path d="M15.626 20.992l-4.025 10.485-1.726-3.876-3.876 1.726 3.978-10.363c1.581 1.202 3.53 1.945 5.648 2.028v0zM22.074 18.964l3.978 10.363-3.876-1.726-1.726 3.876-4.025-10.485c2.119-0.083 4.068-0.826 5.648-2.028v0 0zM16.026 20c4.971 0 9-4.029 9-9s-4.029-9-9-9c-4.971 0-9 4.029-9 9s4.029 9 9 9v0zM16.026 13.692l-3.5 2.308 1.5-4-3-2h3.5l1.5-4 1.5 4h3.5l-3 2 1.5 4-3.5-2.308z"></path>
</symbol>
<symbol id="menu_burger" viewBox="0 0 48 32">
<path d="M0 5.333v-5.333h48v5.333h-48zM0 18.667h48v-5.333h-48v5.333zM0 32h48v-5.333h-48v5.333z"></path>
</symbol>
<symbol id="email" viewBox="0 0 43 32">
<path d="M37.333 0h-32c-2.2 0-3.98 1.8-3.98 4l-0.020 24c0 2.2 1.8 4 4 4h32c2.2 0 4-1.8 4-4v-24c0-2.2-1.8-4-4-4zM36.533 8.5l-14.14 8.84c-0.64 0.4-1.48 0.4-2.12 0l-14.14-8.84c-0.5-0.32-0.8-0.86-0.8-1.44 0-1.34 1.46-2.14 2.6-1.44l13.4 8.38 13.4-8.38c1.14-0.7 2.6 0.1 2.6 1.44 0 0.58-0.3 1.12-0.8 1.44z"></path>
</symbol>
<symbol id="phone" viewBox="0 0 32 32">
<path d="M27.419 20.852l-4.201-0.48c-1.009-0.116-2.002 0.232-2.713 0.943l-3.044 3.044c-4.681-2.382-8.519-6.203-10.901-10.901l3.060-3.060c0.711-0.711 1.059-1.704 0.943-2.713l-0.48-4.168c-0.198-1.671-1.604-2.928-3.292-2.928h-2.862c-1.869 0-3.424 1.555-3.308 3.424 0.877 14.126 12.174 25.407 26.284 26.284 1.869 0.116 3.424-1.439 3.424-3.308v-2.861c0.016-1.671-1.241-3.077-2.911-3.275z"></path>
</symbol>
<symbol id="name" viewBox="0 0 32 32">
<path d="M16 16c4.42 0 8-3.58 8-8s-3.58-8-8-8c-4.42 0-8 3.58-8 8s3.58 8 8 8zM16 20c-5.34 0-16 2.68-16 8v2c0 1.1 0.9 2 2 2h28c1.1 0 2-0.9 2-2v-2c0-5.32-10.66-8-16-8z"></path>
</symbol>
</defs>
</svg>
